<svg width="552" height="552" viewBox="0 0 552 552" fill="none" xmlns="http://www.w3.org/2000/svg">
<rect width="552" height="552" fill="#C8A388"/>
<g filter="url(#filter0_d)">
<rect x="68" y="60" width="424" height="424" fill="#C8A388"/>
</g>
<path d="M220 94L222 92V452L220 450V94Z" fill="#8DB9D9"/>
<path d="M222 92L224 94V450L222 452V92Z" fill="#8DB9D9"/>
<path d="M344 94L346 92V452L344 450V94Z" fill="#8DB9D9"/>
<path d="M346 92L348 94V450L346 452V92Z" fill="#8DB9D9"/>
<path d="M102 212H458L460 214H100L102 212Z" fill="#8DB9D9"/>
<path d="M100 214H460L458 216H102L100 214Z" fill="#8DB9D9"/>
<path d="M102 336H458L460 338H100L102 336Z" fill="#8DB9D9"/>
<path d="M100 338H460L458 340H102L100 338Z" fill="#8DB9D9"/>
<path d="M60 68L68 60V484L60 492V68Z" fill="url(#paint0_linear)"/>
<path d="M68 484H492L484 492H60L68 484Z" fill="#A88368"/>
<path d="M278.164 123.6H289.828V174H278.164V123.6Z" fill="#EFE7E0"/>
<path d="M411.694 174.864C406.558 174.864 401.902 173.76 397.726 171.552C393.598 169.296 390.334 166.2 387.934 162.264C385.582 158.28 384.406 153.792 384.406 148.8C384.406 143.808 385.582 139.344 387.934 135.408C390.334 131.424 393.598 128.328 397.726 126.12C401.902 123.864 406.582 122.736 411.766 122.736C416.134 122.736 420.07 123.504 423.574 125.04C427.126 126.576 430.102 128.784 432.502 131.664L425.014 138.576C421.606 134.64 417.382 132.672 412.342 132.672C409.222 132.672 406.438 133.368 403.99 134.76C401.542 136.104 399.622 138 398.23 140.448C396.886 142.896 396.214 145.68 396.214 148.8C396.214 151.92 396.886 154.704 398.23 157.152C399.622 159.6 401.542 161.52 403.99 162.912C406.438 164.256 409.222 164.928 412.342 164.928C417.382 164.928 421.606 162.936 425.014 158.952L432.502 165.864C430.102 168.792 427.126 171.024 423.574 172.56C420.022 174.096 416.062 174.864 411.694 174.864Z" fill="#EFE7E0"/>
<path d="M154.162 133.104H138.034V123.6H181.954V133.104H165.826V174H154.162V133.104Z" fill="#EFE7E0"/>
<path d="M295.606 291.2H272.206L267.742 302H255.789L278.254 251.6H289.774L312.31 302H300.07L295.606 291.2ZM291.934 282.344L283.942 263.048L275.95 282.344H291.934Z" fill="#EFE7E0"/>
<path d="M411.694 302.864C406.558 302.864 401.902 301.76 397.726 299.552C393.598 297.296 390.334 294.2 387.934 290.264C385.582 286.28 384.406 281.792 384.406 276.8C384.406 271.808 385.582 267.344 387.934 263.408C390.334 259.424 393.598 256.328 397.726 254.12C401.902 251.864 406.582 250.736 411.766 250.736C416.134 250.736 420.07 251.504 423.574 253.04C427.126 254.576 430.102 256.784 432.502 259.664L425.014 266.576C421.606 262.64 417.382 260.672 412.342 260.672C409.222 260.672 406.438 261.368 403.99 262.76C401.542 264.104 399.622 266 398.23 268.448C396.886 270.896 396.214 273.68 396.214 276.8C396.214 279.92 396.886 282.704 398.23 285.152C399.622 287.6 401.542 289.52 403.99 290.912C406.438 292.256 409.222 292.928 412.342 292.928C417.382 292.928 421.606 290.936 425.014 286.952L432.502 293.864C430.102 296.792 427.126 299.024 423.574 300.56C420.022 302.096 416.062 302.864 411.694 302.864Z" fill="#EFE7E0"/>
<path d="M154.162 261.104H138.034V251.6H181.954V261.104H165.826V302H154.162V261.104Z" fill="#EFE7E0"/>
<path d="M284.009 430.864C278.777 430.864 274.049 429.736 269.825 427.48C265.649 425.224 262.361 422.128 259.961 418.192C257.609 414.208 256.433 409.744 256.433 404.8C256.433 399.856 257.609 395.416 259.961 391.48C262.361 387.496 265.649 384.376 269.825 382.12C274.049 379.864 278.777 378.736 284.009 378.736C289.241 378.736 293.945 379.864 298.121 382.12C302.297 384.376 305.585 387.496 307.985 391.48C310.385 395.416 311.585 399.856 311.585 404.8C311.585 409.744 310.385 414.208 307.985 418.192C305.585 422.128 302.297 425.224 298.121 427.48C293.945 429.736 289.241 430.864 284.009 430.864ZM284.009 420.928C286.985 420.928 289.673 420.256 292.073 418.912C294.473 417.52 296.345 415.6 297.689 413.152C299.081 410.704 299.777 407.92 299.777 404.8C299.777 401.68 299.081 398.896 297.689 396.448C296.345 394 294.473 392.104 292.073 390.76C289.673 389.368 286.985 388.672 284.009 388.672C281.033 388.672 278.345 389.368 275.945 390.76C273.545 392.104 271.649 394 270.257 396.448C268.913 398.896 268.241 401.68 268.241 404.8C268.241 407.92 268.913 410.704 270.257 413.152C271.649 415.6 273.545 417.52 275.945 418.912C278.345 420.256 281.033 420.928 284.009 420.928Z" fill="#EFE7E0"/>
<path d="M428.848 420.64V430H389.824V379.6H427.912V388.96H401.416V399.904H424.816V408.976H401.416V420.64H428.848Z" fill="#EFE7E0"/>
<path d="M154.162 389.104H138.034V379.6H181.954V389.104H165.826V430H154.162V389.104Z" fill="#EFE7E0"/>
<defs>
<filter id="filter0_d" x="28" y="36" width="488" height="488" filterUnits="userSpaceOnUse" color-interpolation-filters="sRGB">
<feFlood flood-opacity="0" result="BackgroundImageFix"/>
<feColorMatrix in="SourceAlpha" type="matrix" values="0 0 0 0 0 0 0 0 0 0 0 0 0 0 0 0 0 0 127 0"/>
<feOffset dx="-8" dy="8"/>
<feGaussianBlur stdDeviation="16"/>
<feColorMatrix type="matrix" values="0 0 0 0 0.658824 0 0 0 0 0.513726 0 0 0 0 0.407843 0 0 0 0.6 0"/>
<feBlend mode="normal" in2="BackgroundImageFix" result="effect1_dropShadow"/>
<feBlend mode="normal" in="SourceGraphic" in2="effect1_dropShadow" result="shape"/>
</filter>
<linearGradient id="paint0_linear" x1="64" y1="60" x2="64" y2="492" gradientUnits="userSpaceOnUse">
<stop stop-color="#B89378"/>
<stop offset="1" stop-color="#A88368"/>
</linearGradient>
</defs>
</svg>
